The thankless life of a vampire hunter has taken its toll on Edgar Frog. After losing best friend and fellow vamp fighter...
 
http://www.imdb.com/title/tt1400526/

Subtitles (srt) : Dutch, English.

Covers included.

De vampierenjager Edgar Frog heeft haast geen vrienden meer en voelt zich berooid. Hij denkt dat hij het dieptepunt van zijn leven heeft bereikt. Dan krijgt hij een klein fortuin aangeboden van de rijke vampierenroman schrijfster Gwen Liebling. Hij moet haar zoon Peter redden uit de handen van de Alpha vampier (de leider van een groep vampieren) DJ Dusk. Met behulp van zijn vrienden Zoe, Lars en Blake stort Edgar zich in een bloederig gevecht om het kwaad uit te roeien.
 
http://www.moviemeter.nl/film/66586

Ondertitels (srt) : Engels, Nederlands.

Hoesjes bijgevoegd.

General
Complete name                    : Lost Boys-The Thirst-AC3-XviD-DVDRip[Eng]2010 2Lions-Team\Lost Boys-The Thirst-AC3-XviD-DVDRip[Eng]2010 2Lions-Team.avi
Format                           : AVI
Format/Info                      : Audio Video Interleave
File size                        : 1.36 GiB
Duration                         : 1h 21mn
Overall bit rate                 : 2 397 Kbps
Writing application              : VirtualDubMod 1.5.4.1 (build 2178/release)
Writing library                  : VirtualDubMod build 2178/release
Source                           : Lost Boys 3 The Thirst COMPLETE 2010 NTSC DVDR-KART3LDVD

Video
ID                               : 0
Format                           : MPEG-4 Visual
Format profile                   : Simple@L3
Format settings, BVOP            : No
Format settings, QPel            : No
Format settings, GMC             : No warppoints
Format settings, Matrix          : Default (H.263)
Codec ID                         : XVID
Codec ID/Hint                    : XviD
Duration                         : 1h 21mn
Bit rate                         : 2 004 Kbps
Width                            : 720 pixels
Height                           : 304 pixels
Display aspect ratio             : 2.35:1
Frame rate                       : 23.976 fps
Color space                      : YUV
Chroma subsampling               : 4:2:0
Bit depth                        : 8 bits
Scan type                        : Progressive
Bits/(Pixel*Frame)               : 0.382
Stream size                      : 1.14 GiB (84%)
Writing library                  : XviD 1.1.2 (UTC 2006-11-01)

Audio
ID                               : 1
Format                           : AC-3
Format/Info                      : Audio Coding 3
Mode extension                   : CM (complete main)
Codec ID                         : 2000
Duration                         : 1h 21mn
Bit rate mode                    : Constant
Bit rate                         : 384 Kbps
Channel(s)                       : 6 channels
Channel positions                : Front: L C R, Side: L R, LFE
Sampling rate                    : 48.0 KHz
Bit depth                        : 16 bits
Stream size                      : 223 MiB (16%)
Alignment                        : Split accross interleaves
Interleave, duration             : 42 ms (1.00 video frame)
Interleave, preload duration     : 500 ms

Thanks to Simply ReleaseS for the source, and Dutch subs. Excellent job peeps!

Brought to you by 
2Lions Team

meer zien??
                   
Kom dan eens kijken op ons NIEUWE forum 
            
http://www.2lions-site.nl/

2Lions the site to be for all your Dutch MOVIES and more

******************************************

DON T HIT AND RUN Niet gelijk afhaken als de FILM binnen is blijf seeden. 

Don`t quit after you finished the download, but keep seeding

There are fake torrents from uploaders who use our team name.
Those are not ours, or members from our team.
We 2Lions-Team are not responsible for the fake posts on our name

Wij 2Lions-Team zijn niet verantwoordelijk voor die zieke FAKE posten die op onze naam worden gedaan

Please check our site !!!

to the fakers , get a life !!!